<svg width="140" height="40" viewBox="0 0 86 28" fill="none" xmlns="http://www.w3.org/2000/svg">
<g clip-path="url(#clip0_121_5688)">
<path d="M32.3321 17.8111H36.2369C36.7836 17.8111 37.2521 17.6556 37.6426 17.2667C38.0331 16.8778 38.1893 16.4111 38.1893 15.7889C38.1893 15.2445 38.0331 14.7778 37.6426 14.3889C37.2521 14 36.7836 13.8445 36.2369 13.8445H32.3321V17.8111ZM35.7683 7.07779H32.4102V10.8111H35.7683C36.315 10.8111 36.7055 10.6556 37.0959 10.2667C37.4083 9.87779 37.6426 9.4889 37.6426 8.94445C37.6426 8.40001 37.4864 7.93334 37.0959 7.62223C36.7055 7.23334 36.315 7.07779 35.7683 7.07779ZM39.3607 12.1333C40.8446 12.9889 41.6255 14.3111 41.6255 16.0222C41.6255 17.5 41.0789 18.6667 40.0636 19.6C39.0484 20.5333 37.7207 21 36.2369 21H29.5206C29.2082 21 29.052 20.7667 29.052 20.5333V4.43334C29.052 4.12223 29.2863 3.96667 29.5206 3.96667H35.7683C37.2521 3.96667 38.4236 4.43334 39.4388 5.36668C40.4541 6.30001 40.9227 7.3889 40.9227 8.7889C40.9227 10.1889 40.376 11.2778 39.3607 12.1333Z" fill="#2C2A27"/>
<path d="M52.0123 15.4V9.33334C52.0123 9.02223 52.2466 8.7889 52.559 8.7889H54.6676C54.98 8.7889 55.2143 9.02223 55.2143 9.33334V20.4556C55.2143 20.7667 54.98 21 54.6676 21H52.559C52.2466 21 52.0123 20.7667 52.0123 20.4556V19.6C51.2314 20.7667 50.0599 21.3111 48.3418 21.3111C47.0142 21.3111 45.9208 20.8445 44.9836 19.9889C44.1246 19.0556 43.656 17.8111 43.656 16.2556V9.25556C43.656 8.94445 43.8903 8.71112 44.2027 8.71112H46.3113C46.6237 8.71112 46.858 8.94445 46.858 9.25556V15.7889C46.858 16.5667 47.0923 17.1889 47.4827 17.6556C47.9513 18.1222 48.498 18.2778 49.279 18.2778C50.138 18.2778 50.7628 18.0445 51.2314 17.5C51.6999 17.1111 52.0123 16.4111 52.0123 15.4Z" fill="#2C2A27"/>
<path d="M61.4619 17.4222C62.1648 18.0444 62.9457 18.3556 63.8829 18.3556C64.8981 18.3556 65.6791 18.0444 66.3039 17.4222C66.9287 16.8 67.241 15.9444 67.241 14.9333C67.241 13.9222 66.9287 13.1444 66.3039 12.4444C65.6791 11.8222 64.8981 11.4333 63.8829 11.4333C62.8676 11.4333 62.0867 11.7444 61.4619 12.4444C60.8371 13.0667 60.5247 13.9222 60.5247 14.9333C60.5247 15.9444 60.8371 16.7222 61.4619 17.4222ZM67.3191 10.2667V5.28889C67.3191 5.13333 67.3972 5.05556 67.5534 4.97778L70.0525 4.12222C70.2868 4.04444 70.443 4.2 70.443 4.43333V20.6889C70.443 20.8444 70.2868 21 70.1306 21H67.6315C67.4753 21 67.3191 20.8444 67.3191 20.6889V19.6C66.382 20.7667 65.0543 21.3889 63.3362 21.3889C61.6962 21.3889 60.2904 20.7667 59.119 19.5222C57.9476 18.2778 57.4009 16.7222 57.4009 14.9333C57.4009 13.1444 57.9476 11.6667 59.119 10.3444C60.2904 9.1 61.6962 8.47778 63.3362 8.47778C65.0543 8.47778 66.382 9.1 67.3191 10.2667Z" fill="#2C2A27"/>
<path d="M76.7688 17.4222C77.3936 18.0445 78.1745 18.3556 79.1898 18.3556C80.205 18.3556 80.986 18.0445 81.6108 17.4222C82.2355 16.8 82.626 15.9445 82.626 14.9333C82.626 13.9222 82.3136 13.1445 81.6108 12.4445C80.986 11.8222 80.205 11.4333 79.1898 11.4333C78.1745 11.4333 77.3936 11.7445 76.7688 12.4445C76.144 13.0667 75.8316 13.9222 75.8316 14.9333C75.8316 15.9445 76.144 16.7222 76.7688 17.4222ZM82.626 10.2667V9.17778C82.626 9.02223 82.7822 8.86667 82.9384 8.86667H85.4375C85.5937 8.86667 85.7499 9.02223 85.7499 9.17778V20.6889C85.7499 20.8445 85.5937 21 85.4375 21H82.9384C82.7822 21 82.626 20.8445 82.626 20.6889V19.6C81.6889 20.7667 80.3612 21.3889 78.6431 21.3889C77.0031 21.3889 75.5973 20.7667 74.4259 19.5222C73.2544 18.2778 72.7078 16.7222 72.7078 14.9333C72.7078 13.1445 73.2544 11.6667 74.4259 10.3445C75.5973 9.10001 77.0031 8.47778 78.6431 8.47778C80.3612 8.47778 81.6889 9.10001 82.626 10.2667Z" fill="#2C2A27"/>
<path d="M65.2888 28C65.0545 28 64.8983 27.9222 64.7421 27.7667C64.5859 27.6111 64.5078 27.4556 64.5078 27.2222C64.5078 26.9889 64.5859 26.8333 64.7421 26.6778C64.8983 26.5222 65.0545 26.4445 65.2888 26.4445C65.5231 26.4445 65.6793 26.5222 65.8355 26.6778C65.9917 26.8333 66.0697 26.9889 66.0697 27.2222C66.0697 27.4556 65.9917 27.6111 65.8355 27.7667C65.6012 27.9222 65.445 28 65.2888 28Z" fill="#2C2A27"/>
<path d="M69.1155 28C68.6469 28 68.1784 27.9222 67.7879 27.6889C67.3974 27.4555 67.085 27.2222 66.8507 26.8333C66.6164 26.4444 66.5383 26.0555 66.5383 25.5889C66.5383 25.1222 66.6164 24.7333 66.8507 24.3444C67.085 23.9555 67.3974 23.7222 67.7879 23.4889C68.1784 23.2555 68.6469 23.1778 69.1155 23.1778C69.5841 23.1778 69.9746 23.2555 70.3651 23.4889C70.6774 23.6444 70.9898 23.9555 71.146 24.2667L70.287 24.7333C70.1308 24.5 69.9746 24.3444 69.7403 24.2667C69.5841 24.1111 69.3498 24.1111 69.1155 24.1111C68.8812 24.1111 68.5688 24.1889 68.4126 24.2667C68.1784 24.4222 68.0222 24.5778 67.866 24.8111C67.7098 25.0444 67.7098 25.2778 67.7098 25.5889C67.7098 25.9 67.7879 26.1333 67.866 26.3667C68.0222 26.6 68.1784 26.7555 68.4126 26.9111C68.6469 27.0667 68.8812 27.0667 69.1155 27.0667C69.3498 27.0667 69.5841 26.9889 69.7403 26.9111C69.9746 26.8333 70.1308 26.6778 70.287 26.4444L71.146 26.9111C70.9898 27.3 70.6774 27.5333 70.3651 27.6889C69.9746 27.8444 69.5841 28 69.1155 28Z" fill="#2C2A27"/>
<path d="M74.1917 26.9889C74.426 26.9889 74.7384 26.9111 74.8946 26.8333C75.1289 26.6778 75.2851 26.5222 75.3632 26.2889C75.5194 26.0555 75.5194 25.8222 75.5194 25.5111C75.5194 25.2 75.4413 24.9667 75.3632 24.7333C75.207 24.5 75.0508 24.3444 74.8946 24.1889C74.6603 24.1111 74.426 24.1111 74.1917 24.1111C73.9574 24.1111 73.645 24.1889 73.4888 24.2667C73.3327 24.3444 73.0984 24.5778 73.0203 24.8111C72.8641 25.0444 72.8641 25.2778 72.8641 25.5889C72.8641 25.9 72.9422 26.1333 73.0203 26.3667C73.1765 26.6 73.3327 26.7555 73.4888 26.9111C73.645 27.0667 73.8793 26.9889 74.1917 26.9889ZM74.1917 28C73.7231 28 73.2546 27.9222 72.8641 27.6889C72.4736 27.4555 72.1612 27.2222 72.005 26.8333C71.7707 26.4444 71.6926 26.0555 71.6926 25.5889C71.6926 25.1222 71.7707 24.7333 72.005 24.3444C72.2393 23.9555 72.5517 23.7222 72.8641 23.4889C73.2546 23.2555 73.645 23.1778 74.1917 23.1778C74.6603 23.1778 75.1289 23.2555 75.5194 23.4889C75.9098 23.7222 76.2222 23.9555 76.3784 24.3444C76.6127 24.7333 76.6908 25.1222 76.6908 25.5889C76.6908 26.0555 76.6127 26.4444 76.3784 26.8333C76.1441 27.2222 75.8317 27.4555 75.5194 27.6889C75.207 27.9222 74.6603 28 74.1917 28Z" fill="#2C2A27"/>
<path d="M83.7195 23.1778C84.11 23.1778 84.4224 23.2555 84.7347 23.4111C85.0471 23.5667 85.2814 23.8 85.4376 24.1111C85.5938 24.4222 85.6719 24.8111 85.6719 25.2778V28H84.5786V25.4333C84.5786 25.0444 84.5005 24.7333 84.2662 24.5C84.0319 24.2667 83.7976 24.1889 83.4852 24.1889C83.2509 24.1889 83.0166 24.2667 82.8604 24.3444C82.7042 24.4222 82.548 24.5778 82.3918 24.8111C82.3138 25.0444 82.2357 25.2778 82.2357 25.5889V28H81.1423V25.4333C81.1423 25.0444 81.0642 24.7333 80.8299 24.5C80.5956 24.2667 80.3613 24.1889 80.049 24.1889C79.8147 24.1889 79.5804 24.2667 79.4242 24.3444C79.268 24.4222 79.1118 24.5778 78.9556 24.8111C78.8775 25.0444 78.7994 25.2778 78.7994 25.5889V28H77.7061V23.3333H78.7213V24.5778L78.5651 24.1889C78.7213 23.8778 78.9556 23.6444 79.268 23.4889C79.5804 23.3333 79.8928 23.2555 80.2832 23.2555C80.7518 23.2555 81.1423 23.3333 81.4547 23.5667C81.7671 23.8 82.0014 24.1111 82.0795 24.5778L81.6109 24.4222C81.7671 24.0333 82.0014 23.8 82.3918 23.5667C82.7823 23.3333 83.2509 23.1778 83.7195 23.1778Z" fill="#2C2A27"/>
<path d="M13.6669 0C13.4326 0 13.1983 0.0777778 12.964 0.155556L1.17145 5.98889C0.468579 6.3 0 7.07778 0 7.85556V19.1333C0 19.9111 0.390483 20.6111 1.09335 21L10.9335 26.6C11.2459 26.7556 11.6364 26.9111 12.0269 26.9111C12.4173 26.9111 12.7297 26.8333 13.0421 26.6778L23.0385 21.2333C23.5852 20.9222 23.8975 20.3778 23.8975 19.7556V15.0889C23.8975 14.3111 23.5071 13.6111 22.8042 13.2222L15.3069 9.17778V1.71111C15.3069 0.7 14.526 0 13.6669 0ZM9.99636 12.3667L17.1812 16.6444C17.7279 16.9556 17.6498 17.7333 17.1812 17.9667L12.4954 20.5333C12.2612 20.6889 11.9488 20.6889 11.7145 20.5333L6.09153 17.3444C5.85724 17.1889 5.70105 16.9556 5.70105 16.6444V10.5C5.70105 10.1889 5.85724 9.95556 6.16963 9.8L8.903 8.47778C9.44968 8.24444 9.99636 8.63333 9.99636 9.17778V12.3667Z" fill="#4D4DFF"/>
</g>
<defs>
<clipPath id="clip0_121_5688">
<rect width="85.75" height="28" fill="white"/>
</clipPath>
</defs>
</svg>
